<svg id="Logo" xmlns="http://www.w3.org/2000/svg" viewBox="0 0 479.22 108.84"><defs><style>.cls-1{fill:#1d1d1b;}.cls-2{fill:#7cbb4e;}.cls-3{fill:#8ec15a;}.cls-4{fill:#67b442;}</style></defs><path class="cls-1" d="M174.54,119.48V54.83h7.11v58.28h38.52v6.37Z" transform="translate(-54.39 -30.13)"/><path class="cls-1" d="M233.38,64.34a4.61,4.61,0,0,1-3.24-7.9A4.61,4.61,0,0,1,236.66,63,4.41,4.41,0,0,1,233.38,64.34Zm3.41,8.87v46.27H230V73.21Z" transform="translate(-54.39 -30.13)"/><path class="cls-1" d="M249.36,119.48V73.21h6.83v5.08a17.22,17.22,0,0,1,6-4.48,18.37,18.37,0,0,1,7.58-1.53,16.69,16.69,0,0,1,8.64,2.27,15.81,15.81,0,0,1,5.95,6.14,18.78,18.78,0,0,1,6.88-6.33,19.38,19.38,0,0,1,9-2.08,16.18,16.18,0,0,1,12.24,5q4.75,5,4.76,12.93v29.28H310.5V91.59q0-6.09-3.23-9.7a11.2,11.2,0,0,0-8.77-3.6,12.94,12.94,0,0,0-6.93,1.94,16.25,16.25,0,0,0-5.36,5.63c.12.68.23,1.37.32,2.08a16.23,16.23,0,0,1,.14,2.26v29.28h-6.74V91.59q0-6.09-3.23-9.7a11.1,11.1,0,0,0-8.69-3.6A13.27,13.27,0,0,0,261.32,80a14.82,14.82,0,0,0-5.13,5v34.45Z" transform="translate(-54.39 -30.13)"/><path class="cls-1" d="M368.6,114.59a29.64,29.64,0,0,1-8.08,4.29,28.2,28.2,0,0,1-9.19,1.44,24,24,0,0,1-9.38-1.85,23.12,23.12,0,0,1-7.57-5.08A24.8,24.8,0,0,1,329.3,87a24.74,24.74,0,0,1,4.85-7.57,22.24,22.24,0,0,1,16.16-6.93A20.47,20.47,0,0,1,359,74.32a21,21,0,0,1,6.93,5.08A24.93,24.93,0,0,1,370.5,87a25.43,25.43,0,0,1,1.7,9.33v2.12h-38a17.51,17.51,0,0,0,5.64,11.37,16.69,16.69,0,0,0,11.73,4.52,22.6,22.6,0,0,0,7-1.11,16,16,0,0,0,5.72-3.14ZM350.13,78.47a14.76,14.76,0,0,0-10.39,4.07A17.11,17.11,0,0,0,334.42,93h30.95a17.76,17.76,0,0,0-5.22-10.29A13.86,13.86,0,0,0,350.13,78.47Z" transform="translate(-54.39 -30.13)"/><path class="cls-1" d="M391.6,125.49l2.68-6.1L375.44,73.21H383l15,38,16.17-38h7.39l-23,53.2q-3,6.66-6.56,9.61a13.93,13.93,0,0,1-9.14,2.95,19,19,0,0,1-2.45-.14,16.47,16.47,0,0,1-1.9-.32v-6.19a17.32,17.32,0,0,0,1.81.28,20.48,20.48,0,0,0,2.07.09,8.36,8.36,0,0,0,5.36-1.75A14.29,14.29,0,0,0,391.6,125.49Z" transform="translate(-54.39 -30.13)"/><path class="cls-2" d="M426.42,73.21h10.9V64.43q0-6.74,3.7-10.39t10.62-3.65a27.43,27.43,0,0,1,3.32.19,14.57,14.57,0,0,1,2.87.65v6.09a25.54,25.54,0,0,0-2.87-.69,16.65,16.65,0,0,0-2.86-.23q-4.07,0-6.05,2t-2,6.24v8.59h13.77V79H444.06v40.45h-6.74V79h-10.9Z" transform="translate(-54.39 -30.13)"/><path class="cls-2" d="M477.87,125.49l2.68-6.1L461.71,73.21h7.57l15,38,16.17-38h7.39l-23,53.2q-3,6.66-6.56,9.61a13.94,13.94,0,0,1-9.15,2.95,19,19,0,0,1-2.44-.14,16.47,16.47,0,0,1-1.9-.32v-6.19a17.56,17.56,0,0,0,1.8.28c.59.06,1.28.09,2.08.09a8.36,8.36,0,0,0,5.36-1.75A14.29,14.29,0,0,0,477.87,125.49Z" transform="translate(-54.39 -30.13)"/><path class="cls-3" d="M152.29,83.17v34.54a10.3,10.3,0,0,1-4.42,8.46,10.06,10.06,0,0,1-4.58,1.77H104.41A53,53,0,0,1,54.54,79c-.1-1.32-.15-2.65-.15-4V40.44A10.31,10.31,0,0,1,64.7,30.13h36l.81,0,1.23.06a50.16,50.16,0,0,1,6.06.75,53,53,0,0,1,8.36,2.23l.71.26c.69.26,1.37.53,2,.82l.94.41c.78.35,1.56.71,2.32,1.1.34.17.68.34,1,.52l.86.48c.32.17.64.35,1,.54l0,0,1,.58.69.43c.75.48,1.48,1,2.21,1.48l.77.56.12.08.51.39.54.42.14.11c.24.18.47.37.7.56.57.46,1.13.93,1.68,1.42l.59.53c.5.45,1,.91,1.46,1.38l.56.55.11.12c.22.22.43.44.64.67l.2.2.63.68.08.09.6.68c.08.09.16.19.25.28s.39.47.59.71A52.72,52.72,0,0,1,152.12,79C152.23,80.37,152.29,81.76,152.29,83.17Z" transform="translate(-54.39 -30.13)"/><path class="cls-3" d="M108.77,36.66V49.3H81.61V30.13h19.06l.81,0,1.23.06A6.45,6.45,0,0,1,108.77,36.66Z" transform="translate(-54.39 -30.13)"/><path class="cls-2" d="M147.87,126.17a10.06,10.06,0,0,1-4.58,1.77H104.41A53,53,0,0,1,54.54,79c-.1-1.32-.15-2.65-.15-4V40.44A10.31,10.31,0,0,1,64.7,30.13h36l.81,0,1.23.06a6.45,6.45,0,0,1,6.06,6.42V75c0,1.35,0,2.68.15,4A53.07,53.07,0,0,0,147.87,126.17Z" transform="translate(-54.39 -30.13)"/><path class="cls-4" d="M131.63,127.94H104.41A53,53,0,0,1,54.54,79c-.1-1.32-.15-2.65-.15-4V40.44A10.31,10.31,0,0,1,64.7,30.13H75.18a6.43,6.43,0,0,1,6.43,6.43V75c0,.44,0,.88,0,1.31v.14c0,.32,0,.65,0,1a5.83,5.83,0,0,0,0,.59c0,.33,0,.66.06,1,0,.1,0,.2,0,.3,0,.28,0,.56.08.85s0,.36,0,.54c0,.44.1.87.16,1.3.1.8.23,1.6.37,2.4q.11.63.24,1.26a.06.06,0,0,0,0,0c.08.42.18.85.28,1.28v0c.09.36.17.72.26,1.08,0,.13.07.25.1.37.09.35.19.7.29,1s.18.65.28,1l.24.78a53.39,53.39,0,0,0,3.27,7.92l.6,1.13c.2.37.41.75.63,1.12s.43.73.65,1.1c.41.68.84,1.36,1.29,2,.13.19.26.38.38.57s.35.5.53.74.42.59.64.88l0,0c.24.33.5.66.75,1s.56.71.85,1,.32.39.49.58.35.42.54.63.19.21.29.32c.27.31.55.62.83.92l.17.18c.34.37.7.73,1,1.08q1.8,1.8,3.77,3.43c1,.81,2,1.58,3,2.32l1,.73c.35.24.71.47,1.07.7a50,50,0,0,0,4.44,2.55,51,51,0,0,0,5.06,2.26c.26.11.52.21.79.3l.18.07c.28.11.57.2.85.3l.59.2.52.17c.23.07.46.15.69.21l.27.08.83.25c1.11.31,2.24.58,3.38.82.24.06.48.11.73.15l.64.13.52.09.73.12.46.07.74.1.66.09h.07c.75.09,1.5.16,2.26.22Z" transform="translate(-54.39 -30.13)"/><text x="-54.39" y="-30.13"/><path class="cls-2" d="M507.13,63.72a0,0,0,0,1,0,0c.21-1,3.15-15.14,14.4-19.8a4.35,4.35,0,0,1,4.68.77,4.56,4.56,0,0,1,0,6.83C515.77,60,511.78,57.05,507.13,63.72Z" transform="translate(-54.39 -30.13)"/><path class="cls-2" d="M533.6,60.09c.59,3.4-14.12,3.68-22.34,5.48C518.86,60.37,532.27,52.44,533.6,60.09Z" transform="translate(-54.39 -30.13)"/></svg>