<svg id="Logo_Icon" data-name="Logo Icon" xmlns="http://www.w3.org/2000/svg" viewBox="0 0 97.9 97.81"><defs><style>.cls-1{fill:#8ec15a;}.cls-2{fill:#7cbb4e;}.cls-3{fill:#67b442;}</style></defs><path class="cls-1" d="M112.45,68.14v34.54a10.3,10.3,0,0,1-4.42,8.46,10.06,10.06,0,0,1-4.58,1.77H64.57A53,53,0,0,1,14.7,64c-.1-1.32-.15-2.65-.15-4V25.41A10.31,10.31,0,0,1,24.86,15.1h36l.81,0,1.23.06a50.16,50.16,0,0,1,6.06.75,53,53,0,0,1,8.36,2.23l.71.26c.69.26,1.37.53,2,.82l.94.41c.78.35,1.56.71,2.32,1.1.34.17.68.34,1,.52l.86.48c.32.17.64.35.95.54l.05,0,1,.58.69.43c.75.48,1.48,1,2.21,1.48l.77.56.12.08.51.39.54.42.14.11c.24.18.47.37.7.56.57.46,1.13.93,1.68,1.42l.59.53c.5.45,1,.91,1.46,1.38l.56.55.11.12c.22.22.43.44.64.67l.2.2.63.68.08.09.6.68c.08.09.16.19.25.28s.39.47.59.71A52.72,52.72,0,0,1,112.28,64C112.39,65.34,112.45,66.73,112.45,68.14Z" transform="translate(-14.55 -15.09)"/><path class="cls-1" d="M68.93,21.62V34.26H41.77V15.09H60.35l.48,0,.81,0,1.23.07A6.44,6.44,0,0,1,68.93,21.62Z" transform="translate(-14.55 -15.09)"/><path class="cls-2" d="M108,111.14a10.06,10.06,0,0,1-4.58,1.77H64.57A53,53,0,0,1,14.7,64c-.1-1.32-.15-2.65-.15-4V25.41A10.31,10.31,0,0,1,24.86,15.1h36l.81,0,1.23.06a6.45,6.45,0,0,1,6.06,6.42V60c0,1.35,0,2.68.15,4A53.07,53.07,0,0,0,108,111.14Z" transform="translate(-14.55 -15.09)"/><path class="cls-3" d="M91.79,112.9H64.57A53,53,0,0,1,14.7,64c-.1-1.32-.15-2.66-.15-4V25.41A10.32,10.32,0,0,1,24.86,15.09H35.34a6.43,6.43,0,0,1,6.43,6.43V60c0,.43,0,.87,0,1.31v.13c0,.33,0,.65,0,1a5.63,5.63,0,0,0,0,.58c0,.33,0,.67.06,1a2.83,2.83,0,0,0,0,.29c0,.29.05.57.08.85s0,.36,0,.55c0,.43.1.87.16,1.29.1.81.23,1.61.37,2.4.07.43.15.85.24,1.27a0,0,0,0,0,0,0c.08.43.18.86.28,1.28v0c.09.37.17.73.26,1.09,0,.12.07.25.1.36.09.36.19.71.29,1.06s.18.64.28,1l.24.78a52.52,52.52,0,0,0,3.27,7.92l.6,1.13c.2.38.41.75.63,1.12s.43.74.65,1.11c.41.68.84,1.35,1.29,2l.38.56.53.75.64.87,0,.06c.24.33.5.65.75,1l.85,1c.16.19.32.39.49.58s.35.42.54.62l.29.33c.27.31.55.61.83.91l.17.18c.34.37.7.73,1,1.09q1.8,1.8,3.77,3.42c1,.81,2,1.59,3,2.32l1.05.73c.35.24.71.47,1.07.7,1.43.92,2.92,1.78,4.44,2.56a53.37,53.37,0,0,0,5.06,2.26l.79.3.18.06c.28.11.57.21.85.3l.59.2.52.17q.34.12.69.21c.09,0,.18.06.27.09l.83.24c1.11.31,2.24.59,3.38.83l.73.14.64.13.52.09c.24.05.49.08.73.12l.46.07.74.11.66.08h.07c.75.1,1.5.17,2.26.23C91,112.86,91.4,112.89,91.79,112.9Z" transform="translate(-14.55 -15.09)"/></svg>